<?xml version="1.0" encoding="iso-8859-1"?>
<!-- Generator: Adobe Illustrator 19.0.0, SVG Export Plug-In . SVG Version: 6.00 Build 0)  -->
<svg version="1.1" id="Layer_1" xmlns="http://www.w3.org/2000/svg" xmlns:xlink="http://www.w3.org/1999/xlink" x="0px" y="0px"
	 viewBox="0 0 512 512" style="enable-background:new 0 0 512 512;" xml:space="preserve">
<g>
	<g>
		<path d="M466.912,167.796v-82.72c0-13.774,11.205-24.98,24.98-24.98V19.881c-35.948,0-65.195,29.246-65.195,65.195v69.289
			c-2.94-0.278-5.914-0.434-8.925-0.434c-2.745,0-5.455,0.143-8.141,0.374V85.076c0-35.948-29.246-65.195-65.194-65.195v40.215
			c13.772,0,24.979,11.205,24.979,24.98v82.28c-27.452,16.481-45.873,46.518-45.873,80.803v51.746
			c-11.807,3.791-29.337,10.672-51.56,22.919c-5.355,32.645-21.877,62.065-47.321,83.801c-25.65,21.913-57.596,33.659-90.969,33.659
			c-3.728,0-7.472-0.146-11.229-0.441c-31.616-2.485-61.3-13.162-86.671-30.791c-10.55,14.05-19.778,34.474-19.778,62.961v20.107
			h392.384C465.525,492.119,512,445.644,512,388.52V248.159C511.999,214.196,493.933,184.38,466.912,167.796z"/>
	</g>
</g>
<g>
	<g>
		<path d="M197.422,84.923c-48.785-3.83-96.143,11.558-133.35,43.344C26.865,160.052,4.263,204.425,0.429,253.208
			c-2.853,36.291,8.598,71.521,32.243,99.198c23.645,27.679,56.652,44.493,92.942,47.342c26.683,2.102,52.58-6.32,72.927-23.704
			c20.347-17.382,32.708-41.647,34.805-68.328c3.13-39.814-26.716-74.753-66.532-77.882c-13.598-1.071-26.802,3.221-37.173,12.083
			c-10.371,8.862-16.673,21.231-17.742,34.832l-40.092-3.153c1.912-24.309,13.173-46.419,31.714-62.256
			c18.54-15.839,42.145-23.504,66.446-21.598c20.941,1.648,40.098,8.965,56.109,20.309c22.677,16.065,39.015,40.223,45.092,67.887
			c4.223-2.052,8.286-3.936,12.158-5.64v-24.142c0-29.082,9.303-56.021,25.061-78.043c5.973-8.346,12.869-15.985,20.549-22.76
			C296.937,110.256,252.773,89.272,197.422,84.923z"/>
	</g>
</g>
<g>
</g>
<g>
</g>
<g>
</g>
<g>
</g>
<g>
</g>
<g>
</g>
<g>
</g>
<g>
</g>
<g>
</g>
<g>
</g>
<g>
</g>
<g>
</g>
<g>
</g>
<g>
</g>
<g>
</g>
</svg>
